<?xml version="1.0" encoding="utf-8"?>
<!-- Generator: Adobe Illustrator 26.0.3, SVG Export Plug-In . SVG Version: 6.00 Build 0)  -->
<svg version="1.1" id="レイヤー_1" xmlns="http://www.w3.org/2000/svg" xmlns:xlink="http://www.w3.org/1999/xlink" x="0px"
	 y="0px" viewBox="0 0 377.4 238.7" style="enable-background:new 0 0 377.4 238.7;" xml:space="preserve">
<style type="text/css">
	.st0{fill:#FFFFFF;}
</style>
<g>
	<g>
		<path class="st0" d="M7.2,207.8l0.2,6.2c0.1,2.5,0.2,4.3,0.2,5.5c0.1,1.9-0.1,3.1-0.7,3.5c-0.8,0.7-1.6,0.8-2.5,0.3
			c-0.9-0.4-1.5-1.2-1.7-2.2c0-1.3,0.1-2.7,0.2-4.2c0.1-1.2,0.1-3.1,0-5.7c-0.1-2.1-0.2-4.1-0.3-5.9c-0.1-0.3-0.4-0.7-0.8-1
			c-0.7-0.4-1.2-0.8-1.7-1c0.3-0.4,0.9-0.8,1.8-1.2c0.6-0.2,1.6,0.1,3,0.8l1.5,0.8c1.3,0.8,2.1,1.4,2.2,1.8c0,0.2-0.1,0.5-0.3,0.8
			C7.8,207.2,7.4,207.6,7.2,207.8z M22.9,205.8v5.5c0,2.8-0.1,5.3-0.3,7.5c-0.3,2.8-0.9,5.1-1.7,6.9c-1.6,3.3-4.4,6.2-8.5,8.5
			c-1.6,0.9-3.6,1.8-6.2,2.7c-1.1,0.3-1.3,0.2-0.7-0.5c2.1-1.1,3.7-2.1,4.9-3c4.1-3.2,6.5-7.6,7-13.1c0.4-4.4,0.5-9.3,0.2-14.7
			c-0.1-1.6-0.3-2.5-0.7-2.8c-0.2-0.2-1-0.6-2.3-1c0-0.3,0.1-0.6,0.3-0.7c0.7-0.6,1.2-0.9,1.7-1c0.9-0.2,2.6,0.4,5,1.8
			c0.9,0.6,1.4,0.9,1.7,1.2c0.7,0.7,0.8,1.3,0.3,1.8L22.9,205.8z"/>
		<path class="st0" d="M60.9,214.5c2.5,1,4.2,2,5.2,3c0.9,1.7,0.5,2.6-1.2,2.8l-1.2-0.2l-6,0.5c-1.6,0.1-3.3,0.4-5.4,0.8
			c-0.9,0.2-1.6,0.4-2.2,0.5l1,4c0.8,2.9,1.4,5.1,1.8,6.5c0.7,1.6,0.8,2.6,0.5,3.2c-0.4,1.8-1.7,2.2-3.7,1.2c-1.2-0.7-1.9-1.7-2-3.2
			c-0.1-1.1-0.7-4.6-1.8-10.5c-0.7,0.2-2,0.7-4,1.3l-2.5,0.8c-0.9,0.3-2.5,1-4.9,2c-0.8,0.1-2.2-0.6-4.2-2c-1.3-1-1.9-2.1-1.7-3.3
			c0.1-0.3,0.3-0.6,0.5-0.8c0.8,0.7,1.3,1.1,1.7,1.3c1.1,0.7,2.5,0.8,4,0.3c1.7-0.4,3.3-0.9,5-1.3l5.4-1.5c-0.4-2.3-1.1-4.7-1.8-7
			c-3.2,0.8-5.4,1.6-6.5,2.3c-0.7,0.4-1.1,0.7-1.3,0.7c-0.7-0.1-1.6-0.6-2.8-1.3c-1.6-0.9-2.3-1.8-2.3-2.7c0-0.8,0.2-1.3,0.7-1.7
			c0.8,0.8,1.5,1.3,2.2,1.5c0.8,0.2,1.7,0.2,2.8-0.2c2-0.4,4.3-1,6.9-1.7c-1.1-4.2-1.8-6.5-2-6.7c-0.3-0.3-0.9-0.6-1.7-0.8
			c-0.6-0.1-1.2-0.2-2-0.3c0.2-0.7,0.7-1.2,1.3-1.7c0.6-0.6,1.4-0.7,2.5-0.3c2.6,0.3,4.2,0.8,5,1.3c0.9,0.9,0.9,1.8,0,2.7
			c0.2,1.3,0.5,2.8,0.8,4.5l6.2-1.7l1.8-1.8c1.6,0.6,2.9,1.2,4,1.8c1,0.6,1.4,1.2,1.3,1.8c-0.1,0.7-0.7,1.1-1.8,1.2
			c-3.1,0.2-6.8,0.8-10.9,1.8l1.8,7.2c2.7-0.7,5.8-1.4,9.4-2.3L60.9,214.5z"/>
		<path class="st0" d="M80.5,214.8c4.2,0.6,7.2,1.2,8.9,2c3,1.5,4.7,3.2,5,5.2c0.3,1.7-0.1,2.7-1.3,3.2c-1.5,0.6-2.6,0.2-3.5-1.2
			c-1.6-2.5-3.1-4.4-4.7-5.7c-1.2-1-2.7-1.8-4.4-2.5v8.4c0,2.9,0.1,5.5,0.2,7.7c0.1,1.9,0,3.2-0.3,4c-0.2,0.6-0.7,1.1-1.5,1.5
			c-1.5,0.6-2.5-0.1-3.2-1.8c-0.2-0.7-0.3-1.7-0.2-3c0-0.7,0.1-1.6,0.2-2.7c0.3-3,0.4-8.1,0.3-15.4c-0.1-6.1-0.2-9.8-0.3-11
			c-0.1-0.8-1-1.5-2.7-2.2c0.2-0.3,0.6-0.6,1-0.8c0.8-0.3,1.4-0.6,2-0.7c0.7-0.1,1.7,0.3,3.2,1.3c1.3,0.9,2.2,1.6,2.5,2.2
			c0.3,0.6,0.1,1.3-0.8,2.2C80.7,206.6,80.6,209.7,80.5,214.8z"/>
		<path class="st0" d="M126.3,209.7c0.7,0.6,1.8,1.6,3.5,3c0.3,0.2,0.7,0.6,1.2,1c0.6,0.6,0.8,1.1,0.8,1.5c0,0.8-0.8,1.3-2.3,1.5
			l-2.7,3.8c-1.9,2.7-4.1,5.2-6.5,7.5c-2.7,2.6-5.6,4.5-8.7,5.9c-5.2,2.2-8,3.2-8.4,2.8c-0.2-0.2,0-0.5,0.7-0.8
			c2.3-1.2,4.2-2.3,5.7-3.3c4.2-3,7.9-7,11-12.1c0.6-0.9,1.1-1.8,1.7-2.7c0.7-1.1,1.2-2.1,1.5-3c-5.9,0.4-10.1,0.9-12.6,1.3
			c-2.5,0.4-5,1.1-7.5,2c-0.6,0.2-0.9,0.3-1.2,0.2c-0.6-0.2-1.5-1.1-2.7-2.5c-0.9-1-1.3-1.9-1.2-2.7c0.1-0.9,0.4-1.4,1-1.7
			c0.3,0.4,0.8,1.1,1.5,1.8c0.4,0.4,1.1,0.6,2,0.5c0.9-0.1,1.8-0.2,2.7-0.3c7.3-0.9,13.4-1.6,18.6-2L126.3,209.7z M121.8,200.8
			c1.7,0.6,2.8,1.1,3.5,1.5c1.4,0.9,1.8,1.8,1.2,2.8c-0.2,0.3-1.9,0.5-5,0.5c-1.7,0-4.1,0.2-7.2,0.5c-1.6,0.2-3.5,0.6-5.9,1
			c-0.9,0.2-1.6,0.2-2-0.2c-1-0.7-1.8-1.4-2.5-2.3c-0.7-1.3-0.6-2.3,0.3-3c1.1,1.1,2,1.7,2.5,1.8c0.8,0.1,1.6,0.1,2.5,0
			c0.8-0.1,1.6-0.2,2.5-0.3c3.3-0.3,6-0.7,7.9-1L121.8,200.8z"/>
		<path class="st0" d="M161.4,203.6c1.2,0.8,2.4,1.6,3.5,2.5c1.3,1.1,1.9,2,1.7,2.7c-0.1,0.6-0.8,0.9-2.2,1
			c-3.3,4.7-6.1,8.3-8.2,10.7c1.9,0.4,3,0.7,3.2,0.8c1.8,0.6,3.6,1.4,5.5,2.5c2.9,1.8,4.6,3.8,5,6c0.3,1.9-0.3,3.1-1.8,3.5
			c-1,0.3-1.9,0-2.7-1c-0.4-0.6-1.1-1.6-1.8-3c-2-3.5-4.7-6.2-8-8.2c-0.9,0.9-1.8,1.8-2.8,2.7c-3.3,3-7.1,5.4-11.2,7.2l-4.7,2
			c-1,0.3-1.1,0.1-0.3-0.7c1.9-1.1,3.3-2,4.2-2.7c3.8-2.6,7.1-5.6,9.9-9.2c2.5-3,5-6.9,7.7-11.7c-3.5,0.4-5.8,0.8-7,1.2l-2.7,0.7
			c-1,0.2-1.7,0.4-2,0.7c-0.6,0.3-1,0.6-1.3,0.8c-0.6,0.2-1.7-0.4-3.3-2c-1.2-1.2-1.7-2.6-1.5-4c0.1-0.7,0.4-1.1,0.8-1.2
			c0.7,1.3,1.4,2.1,2.3,2.3c0.4,0.1,1.5,0.1,3.2-0.2l5.5-0.7l7.2-0.8L161.4,203.6z"/>
		<path class="st0" d="M183.7,214.8c4.2,0.6,7.2,1.2,8.9,2c3,1.5,4.7,3.2,5,5.2c0.3,1.7-0.1,2.7-1.3,3.2c-1.5,0.6-2.6,0.2-3.5-1.2
			c-1.6-2.5-3.1-4.4-4.7-5.7c-1.2-1-2.7-1.8-4.4-2.5v8.4c0,2.9,0.1,5.5,0.2,7.7c0.1,1.9,0,3.2-0.3,4c-0.2,0.6-0.7,1.1-1.5,1.5
			c-1.5,0.6-2.5-0.1-3.2-1.8c-0.2-0.7-0.3-1.7-0.2-3c0-0.7,0.1-1.6,0.2-2.7c0.3-3,0.4-8.1,0.3-15.4c-0.1-6.1-0.2-9.8-0.3-11
			c-0.1-0.8-1-1.5-2.7-2.2c0.2-0.3,0.6-0.6,1-0.8c0.8-0.3,1.4-0.6,2-0.7c0.7-0.1,1.7,0.3,3.2,1.3c1.3,0.9,2.2,1.6,2.5,2.2
			c0.3,0.6,0.1,1.3-0.8,2.2C183.9,206.6,183.8,209.7,183.7,214.8z"/>
		<path class="st0" d="M207.2,224.6c-1.2,1.8-2.5,3.3-3.7,4.7c-1.6,1.6-2.1,1.6-1.5,0.2c0.2-0.3,0.4-0.6,0.5-0.8
			c2.5-5.1,4-11,4.7-17.7h-4.5l-0.7-1.2h5.2v-10.7l5.5,0.5c1.1,0.3,1.2,0.9,0.3,1.8l-1.2,0.7v7.7h0.7l1.7-3.3l3,3.2
			c0.6,0.7,0.4,1.1-0.3,1.3h-5v6.9c2.8,0.7,4.6,1.8,5.4,3.3c0.9,2,0.4,3.3-1.3,4c-1.3,0.3-2.1-0.2-2.3-1.7c-0.2-1.4-0.4-2.3-0.5-2.5
			c-0.2-0.7-0.6-1.3-1.2-1.8v17.1c0,0.7-0.7,1.2-2.2,1.5c-1.7,0.3-2.5,0-2.5-1V224.6z M225.1,226.4c-2.9,2.9-5.6,5.2-8.2,7
			c-0.3,0.2-1,0.6-1.8,1.2c-2.2,1.3-2.5,1.1-0.8-0.7c4-3.5,7.4-8.5,10-15.2h-8.5l-0.7-1.2h10v-7.7h-3.5c-0.6,1-1.1,2-1.7,2.8
			c-0.6,1-1.2,2-2,3c-0.2,0.3-0.4,0.7-0.7,1c-0.8,1-1.1,0.8-0.8-0.7c1.4-4.1,2.5-9,3-14.6l4.5,1.8c0.8,0.7,0.8,1.3,0.2,1.8l-0.7,0.3
			c-0.4,1.1-0.9,2.2-1.3,3.2h3v-9.9l5.4,0.7c1.1,0.3,1.2,1,0.3,2l-1,0.7v6.5h4l2.7-3.5l3.5,3.3c0.6,0.7,0.4,1.1-0.3,1.3h-9.9v7.7
			h5.5l2.8-3.9l3.5,3.5c0.7,0.8,0.6,1.3-0.3,1.5h-11c0.6,1,1.1,1.9,1.5,2.7c1,1.6,2.3,3.1,4,4.5c2,1.8,4.4,3.3,7,4.7
			c-1.9,0.9-3.3,2.3-4.4,4.2c-2.2-2.1-3.9-4-5-5.7c-1.3-2-2.6-4.5-3.7-7.4v14.4c0,0.7-0.3,1.1-1,1.3c-0.9,0.3-1.7,0.5-2.5,0.5
			c-0.8,0-1.2-0.5-1.2-1.5V226.4z"/>
		<path class="st0" d="M260.6,229.4c3.5-0.6,6.4-1.1,8.9-1.5c1-0.2,1.5-0.2,1.5,0.2c0,0.4-1.3,1.2-3.9,2.2l-3.7,1.5
			c-3.3,1.3-5.4,2.1-6,2.3c-0.9,0.2-2.3,0.7-4.2,1.3l-0.5,0.8c-0.9,1.6-1.8,1.6-2.7,0.2l-3-4.9c3.6-0.4,6.4-0.8,8.5-1.2v-11h-6.7
			l-0.3-1.2h12.7l2.8-3.9l4,3.5c0.8,0.8,0.7,1.3-0.3,1.5h-7.2V229.4z M272.7,210.8c0.2,3.1,0.7,6.1,1.5,8.9c1.2,4.4,3,7.5,5.4,9.5
			c1.6,1.3,2.6,1.6,3.2,0.8c0.4-0.6,1.1-1.6,1.8-3.2l1.2-2.3c0.4-0.6,0.7-0.4,0.7,0.5c-0.6,2.8-0.8,4.6-0.8,5.5
			c-0.1,0.9-0.1,1.5,0,1.8c0.1,0.2,0.6,1,1.3,2.3c0.6,0.9,0.6,1.7,0.2,2.3c-0.6,0.9-1.6,1.1-3.2,0.7c-1.3-0.3-2.6-0.9-3.9-1.7
			c-4.9-3-8.2-7.4-9.9-13.1c-1-3.5-1.7-7.5-2.2-12.2h-20.1l-0.3-1.2H268l-0.2-4.4l-0.3-6.4l5.4,0.5c1.7,0.6,1.9,1.2,0.7,1.8l-1,0.5
			c-0.1,1.5-0.1,4.1,0.2,7.9h7.4l2.7-3.9l4.2,3.5c0.8,0.8,0.7,1.3-0.3,1.5H272.7z M274,201.4c1.1,0,2.2,0.1,3.2,0.3
			c1.6,0.4,2.6,1.2,3.2,2.2c0.6,0.9,0.7,1.7,0.3,2.5c-0.9,1.6-2.2,1.8-3.9,0.7c-0.3-0.4-0.6-1.2-0.8-2.2c-0.2-1-0.7-1.8-1.5-2.3
			C273.4,202.1,273.2,201.7,274,201.4z"/>
		<path class="st0" d="M313.8,201.9c2.2,3.6,5.7,6.6,10.4,9.2c1.1,0.7,2.5,1.3,4,1.8c1.4,0.4,2.8,0.9,4,1.5
			c-0.9,0.6-1.7,1.1-2.3,1.7c-0.6,0.4-1.2,1.4-2,2.8c-1.6-0.9-3.1-1.9-4.5-3c-2.6-2-4.9-4.4-7-7c-1.3-1.8-2.6-4-3.7-6.5
			c-4.6,7.1-10.3,12.5-17.2,16.1c-0.7,0.4-1.5,0.8-2.5,1c-0.6-0.2-0.4-0.7,0.5-1.3c1.1-0.8,2.2-1.7,3.3-2.7c2.1-2,4-4.1,5.7-6.4
			c2.2-3.1,4.2-6.8,6-10.9l5.7,1.7c1.1,0.6,1.3,1.1,0.5,1.5L313.8,201.9z M294.4,232.1c2.7,0.1,5.3,0.2,7.9,0.2c1.1-2.3,2.1-5.4,3-9
			h-11.6l-0.5-1.2h29.6l2.8-3.7l4.5,3.3c0.9,0.8,0.8,1.3-0.3,1.5h-19.1c1,0.8,1.1,1.4,0.3,1.8l-1.3,0.5c-1.9,2.6-3.7,4.8-5.5,6.7
			c2.3,0,5.4-0.1,9.2-0.2c4.4-0.1,6.6-0.2,6.9-0.2c-1-1.6-2.2-2.9-3.5-4c-1.8-1.1-2-1.7-0.7-1.8c2.7,0.9,4.8,1.8,6.4,2.7
			c2.5,1.5,4.1,3.2,4.9,5.4c0.3,0.9,0.3,1.8,0,2.7c-0.6,1.4-1.3,2.1-2.3,1.8c-1.1,0-1.9-0.6-2.3-1.8c-0.7-1.9-1.2-3.1-1.5-3.5
			c-7.7,1.4-14.7,2.5-20.9,3.2l-0.7,1c-0.8,1.2-1.6,1.2-2.3-0.2L294.4,232.1z M316.8,211.7l3.9,3.2c0.8,0.7,0.7,1.1-0.3,1.3h-18.4
			l-0.3-1.2H314L316.8,211.7z"/>
		<path class="st0" d="M342.7,221.2c-0.3,0.3-0.9,0.8-1.8,1.5c-1.3,1-2.5,1.8-3.5,2.3c-1,0.3-1.1,0-0.2-1c1.4-1.3,2.8-2.8,4-4.4
			c3-3.8,5.3-7.5,6.9-11h-10.5l-0.3-1.2h5.5v-9l5.4,0.8c1.3,0.6,1.4,1.2,0.3,2l-1.3,0.5v5.7h1.3l1.7-2.5l3.5,3.3
			c0.7,0.7,0.6,1.2-0.3,1.5l-1,0.3c-0.4,0.8-0.9,1.6-1.5,2.3c-0.6,0.8-1.8,2.2-3.7,4.4v1.3c1.9,0.3,3.3,0.7,4.2,1.2
			c1.6,0.9,2.3,2.1,2.3,3.5c0,1.2-0.4,2-1.3,2.2c-1.3,0.3-2.2-0.1-2.5-1.2c-0.7-2.3-1.6-4-2.7-4.9v16.9c0.1,0.7-0.3,1.2-1.2,1.5
			c-1,0.4-1.8,0.6-2.5,0.5c-0.3-0.1-0.6-0.4-0.7-0.8V221.2z M365.2,234.1h4.7l3-4l4,3.7c0.8,0.8,0.7,1.3-0.3,1.5h-27.5l-0.3-1.2
			h11.7V215h-8.7l-0.3-1.2h9v-14.9l5.5,0.7c0.9,0.3,0.9,0.9,0.2,1.8l-1,0.7v11.7h3.5l2.7-3.5l3.7,3.3c0.7,0.7,0.6,1.1-0.3,1.3h-9.5
			V234.1z"/>
	</g>
	<g>
		<polygon class="st0" points="111.2,127.1 114.7,133.1 248.1,133.1 243.7,127.1 		"/>
		<path class="st0" d="M256.2,127.1h-0.6c0.1,0.2,0.2,0.3,0.3,0.5L256.2,127.1z"/>
		<polygon class="st0" points="249.2,134.6 115.5,134.6 117.1,137.4 250.3,137.4 250.7,136.6 		"/>
		<path class="st0" d="M243.4,110.3h22.6l14.6-25.2H221C228.5,92.1,236,100.8,243.4,110.3z"/>
		<path class="st0" d="M87,85.1l14.6,25.2h5.2c8.3-9.9,15.9-18.2,22.8-25.2H87z"/>
		<path class="st0" d="M212.1,85.1h-61.1c-10.7,7.3-21.8,16.2-32.2,25.2h112.2L212.1,85.1z"/>
		<polygon class="st0" points="119.6,141.7 247.8,141.7 249.8,138.1 117.6,138.1 		"/>
		<path class="st0" d="M103.2,113.3l0.4,0.7c0.2-0.2,0.4-0.5,0.6-0.7H103.2z"/>
		<path class="st0" d="M115.5,113.3c-2.8,2.5-5.4,4.9-8.1,7.3l2.6,4.5h132.1l-8.9-11.8H115.5z"/>
		<path class="st0" d="M257.4,125.1l6.8-11.8h-18.6c2.9,3.9,5.8,7.8,8.6,11.8H257.4z"/>
		<polygon class="st0" points="232.3,0 135.1,0 119.8,26.5 247.6,26.5 		"/>
		<path class="st0" d="M202.6,72.3c0,0,0-0.3-0.2-0.7c-3.1-1.5-6.1-2.5-9.1-2.9c-10.2-1.4-24,4.6-38.6,13.9h55.5L202.6,72.3z"/>
		<path class="st0" d="M202.4,71.6c5.2,2.4,10.5,6.3,15.9,11.1h61.7l-31.3-54.2H118.7L87.4,82.7h44.6
			C189.3,26.4,201,65.6,202.4,71.6z"/>
		<polygon class="st0" points="135.1,168.5 232.3,168.5 241.8,152.1 125.6,152.1 		"/>
		<path class="st0" d="M233.3,113.3h12.3c-0.7-1-1.5-2-2.3-3h-12.3L233.3,113.3z"/>
		<path class="st0" d="M254.2,125.1h-12l1.5,2h11.9C255.1,126.4,254.7,125.8,254.2,125.1z"/>
		<path class="st0" d="M154.8,82.7h-22.8c-0.8,0.8-1.6,1.6-2.5,2.4h21.6C152.3,84.3,153.5,83.4,154.8,82.7z"/>
		<path class="st0" d="M118.9,110.3h-12.2c-0.8,1-1.6,2-2.5,3h11.3C116.6,112.3,117.7,111.3,118.9,110.3z"/>
		<path class="st0" d="M212.1,85.1h8.9c-0.9-0.8-1.8-1.7-2.7-2.4h-8L212.1,85.1z"/>
	</g>
</g>
</svg>
