<?xml version="1.0" encoding="utf-8"?>
<!-- Generator: Adobe Illustrator 26.0.3, SVG Export Plug-In . SVG Version: 6.00 Build 0)  -->
<svg version="1.1" id="レイヤー_1" xmlns="http://www.w3.org/2000/svg" xmlns:xlink="http://www.w3.org/1999/xlink" x="0px"
	 y="0px" viewBox="0 0 882.8 147.9" style="enable-background:new 0 0 882.8 147.9;" xml:space="preserve">
<style type="text/css">
	.st0{fill:#FFFFFF;}
</style>
<g>
	<g>
		<path class="st0" d="M187.4,57.5l0.3,11c0.2,4.4,0.3,7.6,0.3,9.8c0.2,3.4-0.2,5.4-1.2,6.2c-1.4,1.2-2.9,1.4-4.5,0.6
			c-1.6-0.8-2.6-2.1-3-3.9c0-2.4,0.1-4.8,0.3-7.4c0.2-2.2,0.2-5.5,0-10.1c-0.2-3.8-0.4-7.2-0.6-10.4c-0.2-0.6-0.7-1.2-1.5-1.8
			c-1.2-0.8-2.2-1.4-3-1.8c0.6-0.8,1.7-1.5,3.3-2.1c1-0.4,2.8,0.1,5.3,1.5l2.7,1.5c2.4,1.4,3.7,2.5,3.9,3.3c0,0.4-0.2,0.9-0.6,1.5
			C188.4,56.4,187.8,57.1,187.4,57.5z M215.3,53.9v9.8c0,4.9-0.2,9.4-0.6,13.4c-0.6,4.9-1.6,9-3,12.2c-2.8,5.9-7.8,11-15.1,15.1
			c-2.8,1.6-6.4,3.2-11,4.7c-2,0.6-2.4,0.3-1.2-0.9c3.8-2,6.6-3.8,8.6-5.3c7.3-5.7,11.5-13.4,12.5-23.1c0.8-7.7,0.9-16.4,0.3-26.1
			c-0.2-2.8-0.6-4.5-1.2-5c-0.4-0.4-1.8-1-4.2-1.8c0-0.6,0.2-1,0.6-1.2c1.2-1,2.2-1.6,3-1.8c1.6-0.4,4.5,0.7,8.9,3.3
			c1.6,1,2.6,1.7,3,2.1c1.2,1.2,1.4,2.3,0.6,3.3L215.3,53.9z"/>
		<path class="st0" d="M282.6,69.4c4.3,1.8,7.4,3.6,9.2,5.3c1.6,3,0.9,4.6-2.1,5l-2.1-0.3L277,80.3c-2.8,0.2-5.9,0.7-9.5,1.5
			c-1.6,0.4-2.9,0.7-3.9,0.9l1.8,7.1c1.4,5.1,2.5,9,3.3,11.6c1.2,2.8,1.5,4.6,0.9,5.6c-0.8,3.2-3,3.9-6.5,2.1
			c-2.2-1.2-3.4-3.1-3.6-5.6c-0.2-2-1.3-8.2-3.3-18.7c-1.2,0.4-3.6,1.2-7.1,2.4l-4.5,1.5c-1.6,0.6-4.5,1.8-8.6,3.6
			c-1.4,0.2-3.9-1-7.4-3.6c-2.4-1.8-3.4-3.8-3-5.9c0.2-0.6,0.5-1.1,0.9-1.5c1.4,1.2,2.4,2,3,2.4c2,1.2,4.3,1.4,7.1,0.6
			c3-0.8,5.9-1.6,8.9-2.4l9.5-2.7c-0.8-4.2-1.9-8.3-3.3-12.5c-5.7,1.4-9.6,2.8-11.6,4.2c-1.2,0.8-2,1.2-2.4,1.2
			c-1.2-0.2-2.9-1-5-2.4c-2.8-1.6-4.2-3.2-4.2-4.7c0-1.4,0.4-2.4,1.2-3c1.4,1.4,2.7,2.3,3.9,2.7c1.4,0.4,3.1,0.3,5-0.3
			c3.6-0.8,7.6-1.8,12.2-3c-2-7.5-3.2-11.5-3.6-11.9c-0.6-0.6-1.6-1.1-3-1.5c-1-0.2-2.2-0.4-3.6-0.6c0.4-1.2,1.2-2.2,2.4-3
			c1-1,2.5-1.2,4.5-0.6c4.5,0.6,7.5,1.4,8.9,2.4c1.6,1.6,1.6,3.2,0,4.7c0.4,2.4,0.9,5,1.5,8l11-3l3.3-3.3c2.8,1,5.1,2.1,7.1,3.3
			c1.8,1,2.6,2.1,2.4,3.3c-0.2,1.2-1.3,1.9-3.3,2.1c-5.5,0.4-12,1.5-19.3,3.3l3.3,12.8c4.7-1.2,10.3-2.6,16.6-4.2L282.6,69.4z"/>
		<path class="st0" d="M317.3,70c7.5,1,12.8,2.2,15.7,3.6c5.3,2.6,8.3,5.6,8.9,9.2c0.6,3-0.2,4.8-2.4,5.6c-2.6,1-4.6,0.3-6.2-2.1
			c-2.8-4.3-5.5-7.7-8.3-10.1c-2.2-1.8-4.7-3.3-7.7-4.5v14.8c0,5.1,0.1,9.7,0.3,13.6c0.2,3.4,0,5.7-0.6,7.1c-0.4,1-1.3,1.9-2.7,2.7
			c-2.6,1-4.5-0.1-5.6-3.3c-0.4-1.2-0.5-3-0.3-5.3c0-1.2,0.1-2.8,0.3-4.7c0.6-5.3,0.8-14.4,0.6-27.3c-0.2-10.9-0.4-17.4-0.6-19.6
			c-0.2-1.4-1.8-2.7-4.7-3.9c0.4-0.6,1-1.1,1.8-1.5c1.4-0.6,2.6-1,3.6-1.2c1.2-0.2,3.1,0.6,5.6,2.4c2.4,1.6,3.9,2.9,4.5,3.9
			c0.6,1,0.1,2.3-1.5,3.9C317.7,55.3,317.5,60.9,317.3,70z"/>
		<path class="st0" d="M398.5,60.8c1.2,1,3.3,2.8,6.2,5.3c0.6,0.4,1.3,1,2.1,1.8c1,1,1.5,1.9,1.5,2.7c0,1.4-1.4,2.3-4.2,2.7
			l-4.7,6.8c-3.4,4.7-7.2,9.2-11.6,13.4c-4.7,4.6-9.9,8-15.4,10.4c-9.3,4-14.2,5.6-14.8,5c-0.4-0.4,0-0.9,1.2-1.5
			c4.2-2.2,7.5-4.2,10.1-5.9c7.5-5.3,14-12.5,19.6-21.4c1-1.6,2-3.2,3-4.7c1.2-2,2.1-3.8,2.7-5.3c-10.5,0.8-17.9,1.6-22.3,2.4
			c-4.4,0.8-8.8,2-13.4,3.6c-1,0.4-1.7,0.5-2.1,0.3c-1-0.4-2.6-1.9-4.7-4.5c-1.6-1.8-2.3-3.4-2.1-4.7c0.2-1.6,0.8-2.6,1.8-3
			c0.6,0.8,1.5,1.9,2.7,3.3c0.8,0.8,2,1.1,3.6,0.9c1.6-0.2,3.2-0.4,4.7-0.6c12.9-1.6,23.8-2.8,32.9-3.6L398.5,60.8z M390.5,45
			c3,1,5,1.9,6.2,2.7c2.6,1.6,3.3,3.3,2.1,5c-0.4,0.6-3.4,0.9-8.9,0.9c-3,0-7.2,0.3-12.8,0.9c-2.8,0.4-6.2,1-10.4,1.8
			c-1.6,0.4-2.8,0.3-3.6-0.3c-1.8-1.2-3.3-2.6-4.5-4.2c-1.2-2.4-1-4.2,0.6-5.3c2,2,3.5,3.1,4.5,3.3c1.4,0.2,2.9,0.2,4.5,0
			c1.4-0.2,2.9-0.4,4.5-0.6c5.9-0.6,10.6-1.2,13.9-1.8L390.5,45z"/>
		<path class="st0" d="M460.7,50.1c2.2,1.4,4.3,2.9,6.2,4.5c2.4,2,3.4,3.6,3,4.7c-0.2,1-1.5,1.6-3.9,1.8c-5.9,8.3-10.8,14.6-14.5,19
			c3.4,0.8,5.2,1.3,5.6,1.5c3.2,1,6.4,2.5,9.8,4.5c5.1,3.2,8.1,6.7,8.9,10.7c0.6,3.4-0.5,5.4-3.3,6.2c-1.8,0.6-3.4,0-4.7-1.8
			c-0.8-1-1.9-2.8-3.3-5.3c-3.6-6.1-8.3-11-14.2-14.5c-1.6,1.6-3.3,3.2-5,4.7c-5.9,5.3-12.6,9.6-19.9,12.8l-8.3,3.6
			c-1.8,0.6-2,0.2-0.6-1.2c3.4-2,5.8-3.6,7.4-4.7c6.7-4.5,12.6-10,17.5-16.3c4.3-5.3,8.9-12.3,13.6-20.8c-6.1,0.8-10.3,1.5-12.5,2.1
			l-4.7,1.2c-1.8,0.4-3,0.8-3.6,1.2c-1,0.6-1.8,1.1-2.4,1.5c-1,0.4-3-0.8-5.9-3.6c-2.2-2.2-3.1-4.5-2.7-7.1c0.2-1.2,0.7-1.9,1.5-2.1
			c1.2,2.4,2.6,3.8,4.2,4.2c0.8,0.2,2.7,0.1,5.6-0.3l9.8-1.2l12.8-1.5L460.7,50.1z"/>
		<path class="st0" d="M500.1,70c7.5,1,12.8,2.2,15.7,3.6c5.3,2.6,8.3,5.6,8.9,9.2c0.6,3-0.2,4.8-2.4,5.6c-2.6,1-4.7,0.3-6.2-2.1
			c-2.8-4.3-5.5-7.7-8.3-10.1c-2.2-1.8-4.7-3.3-7.7-4.5v14.8c0,5.1,0.1,9.7,0.3,13.6c0.2,3.4,0,5.7-0.6,7.1c-0.4,1-1.3,1.9-2.7,2.7
			c-2.6,1-4.5-0.1-5.6-3.3c-0.4-1.2-0.5-3-0.3-5.3c0-1.2,0.1-2.8,0.3-4.7c0.6-5.3,0.8-14.4,0.6-27.3c-0.2-10.9-0.4-17.4-0.6-19.6
			c-0.2-1.4-1.8-2.7-4.7-3.9c0.4-0.6,1-1.1,1.8-1.5c1.4-0.6,2.6-1,3.6-1.2c1.2-0.2,3.1,0.6,5.6,2.4c2.4,1.6,3.9,2.9,4.5,3.9
			c0.6,1,0.1,2.3-1.5,3.9C500.5,55.3,500.3,60.9,500.1,70z"/>
		<path class="st0" d="M541.9,87.2c-2.2,3.2-4.4,5.9-6.5,8.3c-2.8,2.8-3.7,2.9-2.7,0.3c0.4-0.6,0.7-1.1,0.9-1.5
			c4.3-9.1,7.1-19.6,8.3-31.4h-8l-1.2-2.1h9.2v-19l9.8,0.9c2,0.6,2.2,1.7,0.6,3.3l-2.1,1.2v13.6h1.2l3-5.9l5.3,5.6
			c1,1.2,0.8,2-0.6,2.4h-8.9V75c4.9,1.2,8.1,3.2,9.5,5.9c1.6,3.6,0.8,5.9-2.4,7.1c-2.4,0.6-3.8-0.4-4.2-3c-0.4-2.6-0.7-4.1-0.9-4.5
			c-0.4-1.2-1.1-2.3-2.1-3.3v30.3c0,1.2-1.3,2.1-3.9,2.7c-3,0.6-4.5,0-4.5-1.8V87.2z M573.7,90.4c-5.1,5.1-10,9.3-14.5,12.5
			c-0.6,0.4-1.7,1.1-3.3,2.1c-4,2.4-4.5,2-1.5-1.2c7.1-6.1,13.1-15.1,17.8-27h-15.1l-1.2-2.1h17.8V61.1h-6.2c-1,1.8-2,3.5-3,5
			c-1,1.8-2.2,3.6-3.6,5.3c-0.4,0.6-0.8,1.2-1.2,1.8c-1.4,1.8-1.9,1.4-1.5-1.2c2.6-7.3,4.3-15.9,5.3-25.8l8,3.3
			c1.4,1.2,1.5,2.3,0.3,3.3l-1.2,0.6c-0.8,2-1.6,3.9-2.4,5.6h5.3V41.5l9.5,1.2c2,0.6,2.2,1.8,0.6,3.6l-1.8,1.2V59h7.1l4.7-6.2
			l6.2,5.9c1,1.2,0.8,2-0.6,2.4H582v13.6h9.8l5-6.8l6.2,6.2c1.2,1.4,1,2.3-0.6,2.7h-19.6c1,1.8,1.9,3.4,2.7,4.7
			c1.8,2.8,4.2,5.4,7.1,8c3.6,3.2,7.7,5.9,12.5,8.3c-3.4,1.6-5.9,4.1-7.7,7.4c-4-3.8-6.9-7.1-8.9-10.1c-2.4-3.6-4.6-7.9-6.5-13.1
			v25.5c0,1.2-0.6,2-1.8,2.4c-1.6,0.6-3.1,0.9-4.5,0.9c-1.4,0-2.1-0.9-2.1-2.7V90.4z"/>
		<path class="st0" d="M636.5,95.8c6.1-1,11.4-1.9,15.7-2.7c1.8-0.4,2.7-0.3,2.7,0.3c0,0.8-2.3,2.1-6.8,3.9l-6.5,2.7
			c-5.9,2.4-9.5,3.8-10.7,4.2c-1.6,0.4-4.1,1.2-7.4,2.4l-0.9,1.5c-1.6,2.8-3.2,2.9-4.7,0.3l-5.3-8.6c6.3-0.8,11.4-1.5,15.1-2.1V78
			h-11.9l-0.6-2.1h22.5l5-6.8l7.1,6.2c1.4,1.4,1.2,2.3-0.6,2.7h-12.8V95.8z M657.9,62.8c0.4,5.5,1.3,10.8,2.7,15.7
			c2.2,7.7,5.3,13.4,9.5,16.9c2.8,2.4,4.6,2.9,5.6,1.5c0.8-1,1.9-2.9,3.3-5.6l2.1-4.2c0.8-1,1.2-0.7,1.2,0.9c-1,4.9-1.5,8.2-1.5,9.8
			c-0.2,1.6-0.2,2.7,0,3.3c0.2,0.4,1,1.8,2.4,4.2c1,1.6,1.1,3,0.3,4.2c-1,1.6-2.9,2-5.6,1.2c-2.4-0.6-4.7-1.6-6.8-3
			c-8.7-5.3-14.5-13.1-17.5-23.1c-1.8-6.1-3.1-13.4-3.9-21.7H614l-0.6-2.1h36.2l-0.3-7.7l-0.6-11.3l9.5,0.9c3,1,3.4,2.1,1.2,3.3
			l-1.8,0.9c-0.2,2.6-0.1,7.2,0.3,13.9h13.1l4.7-6.8l7.4,6.2c1.4,1.4,1.2,2.3-0.6,2.7H657.9z M660.2,46.2c2,0,3.9,0.2,5.6,0.6
			c2.8,0.8,4.6,2.1,5.6,3.9c1,1.6,1.2,3.1,0.6,4.5c-1.6,2.8-3.9,3.2-6.8,1.2c-0.6-0.8-1.1-2.1-1.5-3.9c-0.4-1.8-1.3-3.2-2.7-4.2
			C659.2,47.3,658.9,46.6,660.2,46.2z"/>
		<path class="st0" d="M730.8,47.1c4,6.3,10.1,11.8,18.4,16.3c2,1.2,4.3,2.3,7.1,3.3c2.6,0.8,4.9,1.7,7.1,2.7c-1.6,1-3,2-4.2,3
			c-1,0.8-2.2,2.5-3.6,5c-2.8-1.6-5.4-3.4-8-5.3c-4.6-3.6-8.7-7.7-12.5-12.5c-2.4-3.2-4.6-7-6.5-11.6c-8.1,12.7-18.3,22.2-30.6,28.5
			c-1.2,0.8-2.7,1.4-4.5,1.8c-1-0.4-0.7-1.2,0.9-2.4c2-1.4,4-3,5.9-4.7c3.8-3.6,7.1-7.3,10.1-11.3c4-5.5,7.5-12,10.7-19.3l10.1,3
			c2,1,2.3,1.9,0.9,2.7L730.8,47.1z M696.4,100.5c4.7,0.2,9.4,0.3,13.9,0.3c2-4.2,3.8-9.5,5.3-16h-20.5l-0.9-2.1h52.5l5-6.5l8,5.9
			c1.6,1.4,1.4,2.3-0.6,2.7h-33.8c1.8,1.4,2,2.5,0.6,3.3l-2.4,0.9c-3.4,4.6-6.6,8.5-9.8,11.9c4.2,0,9.6-0.1,16.3-0.3
			c7.7-0.2,11.8-0.3,12.2-0.3c-1.8-2.8-3.9-5.1-6.2-7.1c-3.2-2-3.6-3.1-1.2-3.3c4.7,1.6,8.5,3.2,11.3,4.7c4.3,2.6,7.2,5.7,8.6,9.5
			c0.6,1.6,0.6,3.2,0,4.7c-1,2.6-2.4,3.7-4.2,3.3c-2,0-3.4-1.1-4.2-3.3c-1.2-3.4-2.1-5.4-2.7-6.2c-13.6,2.6-26,4.5-37.1,5.6
			l-1.2,1.8c-1.4,2.2-2.8,2.1-4.2-0.3L696.4,100.5z M736.1,64.3L743,70c1.4,1.2,1.2,2-0.6,2.4h-32.6l-0.6-2.1h22L736.1,64.3z"/>
		<path class="st0" d="M782.1,81.2c-0.6,0.6-1.7,1.5-3.3,2.7c-2.4,1.8-4.5,3.2-6.2,4.2c-1.8,0.6-1.9,0-0.3-1.8
			c2.6-2.4,4.9-4.9,7.1-7.7c5.3-6.7,9.4-13.2,12.2-19.6h-18.7l-0.6-2.1h9.8v-16l9.5,1.5c2.4,1,2.6,2.2,0.6,3.6l-2.4,0.9v10.1h2.4
			l3-4.5l6.2,5.9c1.2,1.2,1,2.1-0.6,2.7l-1.8,0.6c-0.8,1.4-1.7,2.8-2.7,4.2c-1,1.4-3.2,4-6.5,7.7v2.4c3.4,0.6,5.8,1.3,7.4,2.1
			c2.8,1.6,4.2,3.7,4.2,6.2c0,2.2-0.8,3.5-2.4,3.9c-2.4,0.6-3.9-0.1-4.5-2.1c-1.2-4.2-2.8-7-4.7-8.6v30c0.2,1.2-0.5,2.1-2.1,2.7
			c-1.8,0.8-3.3,1.1-4.5,0.9c-0.6-0.2-1-0.7-1.2-1.5V81.2z M821.8,104.1h8.3l5.3-7.1l7.1,6.5c1.4,1.4,1.2,2.3-0.6,2.7h-48.7
			l-0.6-2.1h20.8V70.3h-15.4l-0.6-2.1h16V41.8l9.8,1.2c1.6,0.6,1.7,1.7,0.3,3.3l-1.8,1.2v20.8h6.2l4.7-6.2l6.5,5.9
			c1.2,1.2,1,2-0.6,2.4h-16.9V104.1z"/>
	</g>
	<g>
		<polygon class="st0" points="40.2,99.3 42.2,102.8 121.1,102.8 118.5,99.3 		"/>
		<path class="st0" d="M125.9,99.3h-0.4c0.1,0.1,0.1,0.2,0.2,0.3L125.9,99.3z"/>
		<polygon class="st0" points="121.8,103.7 42.7,103.7 43.7,105.4 122.4,105.4 122.7,104.9 		"/>
		<path class="st0" d="M118.3,89.4h13.3l8.6-14.9h-35.1C109.5,78.6,114,83.7,118.3,89.4z"/>
		<path class="st0" d="M25.9,74.5l8.6,14.9h3.1c4.9-5.9,9.4-10.8,13.5-14.9H25.9z"/>
		<path class="st0" d="M99.9,74.5H63.7c-6.4,4.3-12.9,9.6-19,14.9H111L99.9,74.5z"/>
		<polygon class="st0" points="45.2,107.9 120.9,107.9 122.1,105.8 44,105.8 		"/>
		<path class="st0" d="M35.5,91.1l0.2,0.4c0.1-0.1,0.2-0.3,0.3-0.4H35.5z"/>
		<path class="st0" d="M42.7,91.1c-1.6,1.4-3.2,2.9-4.8,4.3l1.5,2.7h78.1l-5.2-7H42.7z"/>
		<path class="st0" d="M126.6,98.1l4-7h-11c1.7,2.3,3.4,4.6,5.1,7H126.6z"/>
		<polygon class="st0" points="111.8,24.2 54.3,24.2 45.3,39.8 120.8,39.8 		"/>
		<path class="st0" d="M94.2,66.9c0,0,0-0.2-0.1-0.4c-1.8-0.9-3.6-1.5-5.4-1.7c-6-0.8-14.2,2.7-22.8,8.2h32.8L94.2,66.9z"/>
		<path class="st0" d="M94.1,66.5c3,1.4,6.2,3.7,9.4,6.5H140l-18.5-32H44.6L26.1,73h26.3C86.4,39.8,93.3,62.9,94.1,66.5z"/>
		<polygon class="st0" points="54.3,123.7 111.8,123.7 117.4,114 48.7,114 		"/>
		<path class="st0" d="M112.3,91.1h7.3c-0.4-0.6-0.9-1.2-1.3-1.7H111L112.3,91.1z"/>
		<path class="st0" d="M124.7,98.1h-7.1l0.9,1.2h7C125.2,98.9,125,98.5,124.7,98.1z"/>
		<path class="st0" d="M65.9,73H52.4c-0.5,0.5-1,1-1.5,1.4h12.8C64.5,74,65.2,73.5,65.9,73z"/>
		<path class="st0" d="M44.7,89.4h-7.2c-0.5,0.6-1,1.2-1.4,1.7h6.7C43.4,90.5,44.1,89.9,44.7,89.4z"/>
		<path class="st0" d="M99.9,74.5h5.3c-0.5-0.5-1.1-1-1.6-1.4h-4.8L99.9,74.5z"/>
	</g>
</g>
</svg>
